# xmcd
#
# Track frame offsets: 
#        150
#        15163
#        29314
#        43119
#        57427
#        72581
#        89775
#        107880
#        127478
#        149601
#        167298
#        182765
#        199175
#        214765
#        229327
#        248627
#        264427
#        282362
#        305422
#
# Disc length: 4399 seconds
#
# Revision: 0
# Processed by: cddbd v1.5.2PL0 Copyright (c) Steve Scherf et al.
# Submitted via: ExactAudioCopy v0.99pb4
#
DISCID=23112d13
DTITLE=Various Artist - Throwback R&B Set vol.06
DYEAR=2010
DGENRE=R&B
TTITLE0=Zhane - Shame
TTITLE1=Groove Theory - Angel
TTITLE2=Don-E - Don't She !
TTITLE3=Juice - Best Days
TTITLE4=Truce - Celebration Of Life
TTITLE5=Deni Hines feat. Don-E - Delicious
TTITLE6=Art N' Soul - Goin' On
TTITLE7=Changing Faces - Foolin' Around
TTITLE8=Goodfellaz - If You Walk Away
TTITLE9=Kenny Lattimore - For You
TTITLE10=Solo - Touch Me
TTITLE11=Toni Braxton - I Belong To You [Rollerskate Mix]
TTITLE12=Horace Brown - Shake It Up
TTITLE13=Chantay Savage - Betcha'll Never Find
TTITLE14=Shaun Escoffery - Days Like This
TTITLE15=Beverley Knight - Greatest Day [Classic Mix]
TTITLE16=Yo Yo Honey - Don't Come To Leave [Deep Soul Mix]
TTITLE17=Keith Sweat - Right And A Wrong Way
TTITLE18=Montell Jordan - Can I ?
EXTD=
EXTT0=
EXTT1=
EXTT2=
EXTT3=
EXTT4=
EXTT5=
EXTT6=
EXTT7=
EXTT8=
EXTT9=
EXTT10=
EXTT11=
EXTT12=
EXTT13=
EXTT14=
EXTT15=
EXTT16=
EXTT17=
EXTT18=
PLAYORDER=
